PathFileType	4	(X/Y/Z)	RBDS011\RBDS011runT35.trc
DataRate	CameraRate	NumFrames	NumMarkers	Units	OrigDataRate	OrigDataStartFrame	OrigNumFrames
150.000000	150.000000	4	33	mm	150.000000	2250	4500
Frame#	Time	L.ASIS			L.Heel.Bottom			L.Heel.Lateral			L.Heel.Top			L.Iliac.Crest			L.MT1			L.MT5			L.PSIS			L.Shank.Bottom.Lateral			L.Shank.Bottom.Medial			L.Shank.Top.Lateral			L.Shank.Top.Medial			L.Thigh.Bottom.Lateral			L.Thigh.Bottom.Medial			L.Thigh.Top.Lateral			L.Thigh.Top.Medial			R.ASIS			R.ASY			R.Heel.Bottom			R.Heel.Lateral			R.Heel.Top			R.Iliac.Crest			R.MT1			R.MT5			R.PSIS			R.Shank.Bottom.Lateral			R.Shank.Bottom.Medial			R.Shank.Top.Lateral			R.Shank.Top.Medial			R.Thigh.Bottom.Lateral			R.Thigh.Bottom.Medial			R.Thigh.Top.Lateral			R.Thigh.Top.Medial			
		X1	Y1	Z1	X2	Y2	Z2	X3	Y3	Z3	X4	Y4	Z4	X5	Y5	Z5	X6	Y6	Z6	X7	Y7	Z7	X8	Y8	Z8	X9	Y9	Z9	X10	Y10	Z10	X11	Y11	Z11	X12	Y12	Z12	X13	Y13	Z13	X14	Y14	Z14	X15	Y15	Z15	X16	Y16	Z16	X17	Y17	Z17	X18	Y18	Z18	X19	Y19	Z19	X20	Y20	Z20	X21	Y21	Z21	X22	Y22	Z22	X23	Y23	Z23	X24	Y24	Z24	X25	Y25	Z25	X26	Y26	Z26	X27	Y27	Z27	X28	Y28	Z28	X29	Y29	Z29	X30	Y30	Z30	X31	Y31	Z31	X32	Y32	Z32	X33	Y33	Z33	

2251	15	2280.959619542734	974.8451233274316	905.3919296475948	2019.87343361386	334.9244806360759	961.0616881082348	2044.723384435063	321.1533246138408	921.3930470460356	2066.181499540574	352.8161588993073	961.8399529293422	2216.76268626809	1050.313399651623	869.5263604736194	2153.254218920408	152.9393884115598	999.3853310811683	2130.13909445503	172.1872322875256	887.4652743205976	2113.402226544321	1012.783062586517	977.1302404706881	2172.273391453865	361.1722817618617	900.1617834561075	2150.611732549683	392.7313992405482	940.3097518857534	2228.775856452908	417.064948985916	887.3774962756771	2208.168813477841	448.4240580614248	926.4909225202986	2399.245151606604	657.6413365979951	849.9943220727289	2354.002832392815	615.3881306983947	888.5630186966191	2318.670782616059	732.2182299705927	841.5389321751716	2275.227094686563	692.5414310628094	877.0459568463247	2281.16156558676	969.6416832328842	1153.961783889953	1937.665185358143	98.50420972747433	1069.860473547062	1747.780881801071	112.4933126602498	1067.283621486656	1777.744266203139	117.4636536080729	1109.213742062039	1774.964025226387	154.6765648439528	1071.13829669099	2238.220324924095	1025.49755008802	1184.075615308234	1953.647104304597	41.32755073303774	1013.405069329237	1926.919372481603	40.97273664108012	1133.348309845163	2114.618451852094	1014.187708146745	1079.990010854697	1872.291577703341	212.9240327906179	1124.52636530422	1849.790253592622	242.4246729693234	1089.501214033325	1920.638673793511	279.2649586141612	1146.840179267427	1892.180207828278	307.4632804794651	1111.171204969275	2118.259823605711	600.2866439721224	1186.973565123412	2061.375851014193	613.6419149872253	1142.447134540462	2128.815904036398	708.0488249721209	1202.545326319347	2074.932678536033	721.9232175927406	1162.226660999645	
2252	15.00666666666667	2283.215357321128	981.2700478120898	905.2520894174694	2037.456472700784	311.5695841303732	963.8126006504666	2062.903154487403	299.9881017505319	923.8821038930682	2082.22270587908	333.0497972897738	964.2861293420149	2219.594599708872	1057.262496275106	868.9790655206559	2184.986762166509	140.2642552913967	999.7590423441372	2159.354481974457	158.3029128121025	888.3381703685861	2115.487464699645	1018.871506501149	976.7544250424592	2187.531097960633	349.4209565181956	901.9787237422721	2164.050735255896	379.3303756855721	942.455706950971	2240.041178010441	409.1132625606783	889.215218751105	2217.706143953791	438.833947384523	928.6882135530988	2402.461421637046	664.5368455064782	851.5199827505539	2356.968352723498	622.1546124207862	889.6052658361264	2321.765636210122	738.7963764057613	842.0110772469877	2278.086723396403	699.0741590211574	877.1472712138989	2282.834208248819	973.252827097351	1153.510832164507	1920.927624463123	100.4263323642651	1071.508392164138	1731.988027371051	125.8365207313868	1069.346555772993	1762.437172162651	128.4594277051941	1111.164851924915	1761.558088360307	166.2709313669386	1073.460545303737	2242.630004087188	1029.869051260443	1183.315498897303	1932.176609705911	42.60558584901911	1014.117232643644	1906.117958614186	42.37627309135109	1134.24819231354	2116.955380895661	1019.691995342172	1080.109365963296	1857.53721135247	221.7400617293209	1126.119345545662	1835.526964216319	250.7708240493673	1090.444576339684	1905.85421776758	288.2958932725085	1147.963915881547	1877.785695213659	316.0564273988552	1111.616182876637	2107.718201239628	608.4247514865057	1186.345921574593	2052.391228986193	623.7714725594567	1140.440942052516	2122.220851158925	715.8152970200528	1201.568352837658	2069.719968066668	731.499241316072	1160.053956304805	
2253	15.01333333333333	2285.374626423833	987.5280779985128	905.0280407911106	2056.612952516862	288.1804907260131	966.4129964857914	2082.50540814222	278.7820856173904	926.2743995854946	2099.536173344355	313.1071705707915	966.6354477218574	2221.966950812521	1064.050442482317	868.5135732324865	2217.380212822173	128.7513708583369	1000.422196855413	2189.419524251067	145.2587267054774	889.4498774304773	2117.603650916474	1024.986681368056	976.4335271450594	2203.419392380719	337.5824383492447	903.8159750773547	2178.274145135493	365.6646989661484	944.6635063211692	2251.609736981575	400.8425859728657	891.0693417972059	2227.73626923089	428.7291536532813	930.9642829825059	2404.840258412285	670.6599512813727	853.1585217358603	2358.969394967114	628.2758821960226	890.7399225860022	2324.266301090521	744.8675575770508	842.6649250750119	2280.23239952276	705.2243531073011	877.410938864914	2284.388210322768	976.7758215653529	1152.933672602644	1904.859128781679	102.5653441408481	1073.093185075341	1717.626388386026	139.965738802356	1071.83358207065	1748.577488563079	140.1752280799311	1113.404708649605	1749.687596552256	178.3736364436524	1075.979625761111	2246.998658279909	1034.296639751839	1182.536207653337	1911.14517340422	44.29018881791995	1014.994617018099	1886.058470692863	44.25294375419543	1135.23526111715	2119.276404186949	1025.368931805216	1080.208200715154	1844.156090398376	230.5560410977519	1127.796172845941	1822.586074082483	259.1102059914618	1091.487071877701	1892.474568006707	297.331936963628	1149.080803921238	1864.767478784719	324.6459005979776	1112.092118098114	2098.051131767058	616.4612929932903	1185.538813467361	2044.324786799459	633.5292750060611	1138.218761891997	2116.117345808095	723.4288073637241	1200.38419646312	2065.052721559655	740.6654051063656	1157.611585237478	
2254	15.02	2287.381150102006	993.5101105644047	904.7524898605719	2077.303930666667	264.9673066305181	968.765967856304	2103.539197222261	257.7354079538792	928.4919283257296	2118.091681500347	293.1814431168247	968.8058257036549	2223.899935110453	1070.610053514421	868.1429726059044	2250.278724220907	118.5462845741246	1001.42732303499	2220.315038909093	133.2098498629535	890.8162597792839	2119.695523874203	1031.056204067142	976.1680178076826	2219.940789025075	325.7730117575423	905.6422763251635	2193.280014362709	351.8813884326723	946.8660648374023	2263.512578515948	392.3290594554487	892.8931593999704	2238.274309117935	418.2235919150414	933.2364467881403	2406.348139651937	675.9346302475009	854.8924424552054	2359.978939011497	633.6599528838077	891.9383788443758	2326.117577361064	750.340385207316	843.5108257999275	2281.61662842637	710.8808269970424	877.8328581777356	2285.774645779026	980.1730799558148	1152.25900987031	1889.340959746817	105.0123254697464	1074.593364730447	1704.708095716193	154.7788025128744	1074.692809617105	1736.133742941482	152.5405203678686	1115.894434579988	1739.29979547038	190.8730772025703	1078.652247648261	2251.202198588195	1038.814433623832	1181.734059982538	1890.528013655935	46.48321039935546	1016.043685501452	1866.676279578972	46.72482140262214	1136.28596550712	2121.510351850409	1031.144247559935	1080.280701849617	1832.111854520163	239.2585539737054	1129.537306170406	1810.924040215004	267.3612040252176	1092.636980690151	1880.512053767833	306.216828451913	1150.186655694883	1853.131785616808	333.1104696783968	1112.627364335644	2089.400009043099	624.1523011770131	1184.583219369588	2037.230193430461	642.6509139985541	1135.893688942381	2110.588526335584	730.6763053256461	1199.037898507529	2060.934923229637	749.1996484860987	1155.020045730965	
